Coordinates
version=1
nRows=17
nColumns=34
inDegrees=yes

Units are S.I. units (second, meters, Newtons, ...)
Angles are in degrees.

endheader
time	pelvis_tilt	pelvis_list	pelvis_rotation	pelvis_tx	pelvis_ty	pelvis_tz	hip_flexion_r	hip_adduction_r	hip_rotation_r	knee_angle_r	ankle_angle_r	subtalar_angle_r	mtp_angle_r	hip_flexion_l	hip_adduction_l	hip_rotation_l	knee_angle_l	socket_flexion	socket_adduction	socket_rotation	socket_tx	socket_ty	socket_tz	pros_ankle_rx	pros_ankle_ry	pros_ankle_rz	pros_ankle_tx	pros_ankle_ty	pros_ankle_tz	foot_flex	lumbar_extension	lumbar_bending	lumbar_rotation
      0.30000000	      0.08932716	     -2.00195968	     -2.21991992	     -0.34107133	      1.04952346	      0.31582907	     10.21511704	     -4.30064458	     -8.97474801	    -59.96869681	      3.83952071	     17.25041444	     19.78157706	      8.28810086	      0.81510608	     -1.97997320	    -20.13048453	     -2.06438699	      0.00000000	      0.00000000	      0.00000000	      0.00000000	      0.00000000	      0.00000000	      0.00000000	      0.00000000	      0.00000000	      0.00000000	      0.00000000	      5.36115886	    -19.80253753	     -6.09155334	     -3.24741434
      0.30416667	      0.12436303	     -2.10391604	     -2.13436698	     -0.33567014	      1.05029096	      0.31562119	     10.67231196	     -4.18154428	     -9.06526249	    -59.66749697	      4.60918057	     17.02836082	     19.79350009	      7.74993434	      0.74430954	     -1.87759241	    -19.77402807	     -1.99417064	      0.00000000	      0.00000000	      0.00000000	      0.00000000	      0.00000000	      0.00000000	      0.00000000	      0.00000000	      0.00000000	      0.00000000	      0.00000000	      5.45811381	    -19.82379826	     -5.93197879	     -3.30711093
      0.30833333	      0.17480766	     -2.19281843	     -2.05997142	     -0.33027535	      1.05108529	      0.31545089	     11.11044813	     -4.06117779	     -9.12124570	    -59.33175704	      5.37562970	     16.79031607	     19.78285744	      7.16580762	      0.68379396	     -1.78181682	    -19.32895090	     -1.86567913	      0.00000000	      0.00000000	      0.00000000	      0.00000000	      0.00000000	      0.00000000	      0.00000000	      0.00000000	      0.00000000	      0.00000000	      0.00000000	      5.57947608	    -19.82895409	     -5.74783719	     -3.38049875
      0.31250000	      0.25762185	     -2.27868261	     -2.01592552	     -0.32493221	      1.05193461	      0.31535613	     11.50943382	     -3.93363679	     -9.15053304	    -58.95269952	      6.09983936	     16.55714901	     19.73466561	      6.51638286	      0.62226479	     -1.68413821	    -18.78223397	     -1.66488435	      0.00000000	      0.00000000	      0.00000000	      0.00000000	      0.00000000	      0.00000000	      0.00000000	      0.00000000	      0.00000000	      0.00000000	      0.00000000	      5.69405042	    -19.86823390	     -5.57834824	     -3.45119264
      0.31666667	      0.28333340	     -2.30714901	     -1.99737616	     -0.31975758	      1.05245129	      0.31520806	     12.02132175	     -3.93514674	     -9.23777192	    -58.60000188	      6.22806665	     16.51961378	     19.72762513	      6.10071578	      0.62152777	     -1.66615495	    -18.73995356	     -1.80461283	      0.00000000	      0.00000000	      0.00000000	      0.00000000	      0.00000000	      0.00000000	      0.00000000	      0.00000000	      0.00000000	      0.00000000	      0.00000000	      5.75984688	    -19.92485393	     -5.56327382	     -3.45999807
      0.32083333	      1.06420200	     -2.18689931	     -2.27351303	     -0.31348898	      1.05508948	      0.31582555	     11.52072945	     -3.96394940	     -8.94508676	    -57.92130555	      7.19346179	     16.26304662	     18.76395773	      3.67593301	      0.79016956	     -1.85119165	    -15.46241490	      0.05352583	      0.00000000	      0.00000000	      0.00000000	      0.00000000	      0.00000000	      0.00000000	      0.00000000	      0.00000000	      0.00000000	      0.00000000	      0.00000000	      5.91711452	    -20.68760637	     -5.72756721	     -3.31155829
      0.32500000	      1.09104425	     -2.21585372	     -2.24837505	     -0.30846533	      1.05550407	      0.31568893	     12.03566513	     -3.94908175	     -9.02749611	    -57.53784490	      7.32603535	     16.24579306	     18.76557884	      3.29483024	      0.78961184	     -1.82100384	    -15.47264079	     -0.09657775	      0.00000000	      0.00000000	      0.00000000	      0.00000000	      0.00000000	      0.00000000	      0.00000000	      0.00000000	      0.00000000	      0.00000000	      0.00000000	      5.98944794	    -20.73989959	     -5.71000867	     -3.31595377
      0.32916667	      1.35585663	     -2.40760918	     -2.23632372	     -0.30280391	      1.05682570	      0.31571236	     12.08000949	     -3.64254741	     -9.01512365	    -56.84346295	      8.32368366	     16.14710071	     18.12746115	      2.14423665	      0.61442043	     -1.77744179	    -14.08548236	      0.65503025	      0.00000000	      0.00000000	      0.00000000	      0.00000000	      0.00000000	      0.00000000	      0.00000000	      0.00000000	      0.00000000	      0.00000000	      0.00000000	      6.13194748	    -21.00646613	     -5.41130794	     -3.30919845
      0.33333333	      1.38497105	     -2.42138014	     -2.22684667	     -0.29783392	      1.05716002	      0.31562499	     12.59752460	     -3.63865923	     -9.09361449	    -56.43696480	      8.43020914	     16.12867029	     18.12731835	      1.77019846	      0.62649575	     -1.74829584	    -14.10576181	      0.50455529	      0.00000000	      0.00000000	      0.00000000	      0.00000000	      0.00000000	      0.00000000	      0.00000000	      0.00000000	      0.00000000	      0.00000000	      0.00000000	      6.20357870	    -21.05851600	     -5.39580445	     -3.31381562
      0.33750000	      1.32987990	     -2.71799875	     -2.08621238	     -0.29255129	      1.05773543	      0.31547114	     12.99590258	     -3.21304558	     -9.21376786	    -55.71684148	      9.26731963	     16.03068317	     18.14461005	      1.39743895	      0.31149765	     -1.67138455	    -13.85054952	      0.59735690	      0.00000000	      0.00000000	      0.00000000	      0.00000000	      0.00000000	      0.00000000	      0.00000000	      0.00000000	      0.00000000	      0.00000000	      0.00000000	      6.35213435	    -21.01480341	     -5.01606177	     -3.34374463
      0.34166667	      1.36095296	     -2.88486153	     -2.03228928	     -0.28730967	      1.05830151	      0.31533680	     13.36053639	     -2.96059193	     -9.25391118	    -55.04809737	      9.67404278	     15.85527615	     18.00927488	      0.86573192	      0.15337477	     -1.59891098	    -13.43511421	      0.74807568	      0.00000000	      0.00000000	      0.00000000	      0.00000000	      0.00000000	      0.00000000	      0.00000000	      0.00000000	      0.00000000	      0.00000000	      0.00000000	      6.46056703	    -21.03129728	     -4.64847826	     -3.41255075
      0.34583333	      1.41040006	     -3.03975616	     -1.97009621	     -0.28216104	      1.05884953	      0.31527133	     13.69768731	     -2.70152618	     -9.28478155	    -54.35211948	     10.07117805	     15.75552414	     17.87858991	      0.34716847	      0.00291576	     -1.54972478	    -13.07885077	      0.88004266	      0.00000000	      0.00000000	      0.00000000	      0.00000000	      0.00000000	      0.00000000	      0.00000000	      0.00000000	      0.00000000	      0.00000000	      0.00000000	      6.57520062	    -21.09183563	     -4.42414865	     -3.44361453
      0.35000000	      1.41435401	     -3.14149739	     -1.91337392	     -0.27705018	      1.05921003	      0.31523522	     14.10787167	     -2.54193735	     -9.37903529	    -53.68149420	     10.32482722	     15.70970669	     17.80453999	     -0.05582476	     -0.09470482	     -1.56531348	    -12.90096678	      0.90041984	      0.00000000	      0.00000000	      0.00000000	      0.00000000	      0.00000000	      0.00000000	      0.00000000	      0.00000000	      0.00000000	      0.00000000	      0.00000000	      6.66780997	    -21.18283899	     -4.35717513	     -3.46380889
      0.35416667	      1.96798512	     -3.27584219	     -2.03600657	     -0.27139872	      1.06078110	      0.31552054	     13.79387900	     -2.26569713	     -9.23671203	    -52.78333812	     10.63769793	     15.41739659	     16.63119929	     -1.75722912	     -0.19735787	     -1.61214061	    -10.86981448	      2.03833336	      0.00000000	      0.00000000	      0.00000000	      0.00000000	      0.00000000	      0.00000000	      0.00000000	      0.00000000	      0.00000000	      0.00000000	      0.00000000	      6.78615114	    -21.77522944	     -4.15393995	     -3.41145977
      0.35833333	      2.00132703	     -3.44138643	     -1.98127889	     -0.26626261	      1.06115462	      0.31546156	     14.13074144	     -2.01252185	     -9.31451158	    -52.02847443	     11.00256113	     15.55427099	     16.40595415	     -2.23117989	     -0.36450492	     -1.58431406	    -10.59957137	      2.11004865	      0.00000000	      0.00000000	      0.00000000	      0.00000000	      0.00000000	      0.00000000	      0.00000000	      0.00000000	      0.00000000	      0.00000000	      0.00000000	      6.90714013	    -21.82678697	     -3.88644148	     -3.37047269
      0.36250000	      1.99229870	     -3.50136701	     -1.93237806	     -0.26130473	      1.06135938	      0.31550032	     14.55214344	     -1.88005876	     -9.37612577	    -51.31351896	     11.22339102	     15.55035882	     16.36214704	     -2.55802739	     -0.42407256	     -1.56120213	    -10.55790903	      2.06892442	      0.00000000	      0.00000000	      0.00000000	      0.00000000	      0.00000000	      0.00000000	      0.00000000	      0.00000000	      0.00000000	      0.00000000	      0.00000000	      7.00846646	    -21.89661107	     -3.87441982	     -3.39507394
      0.36666667	      1.98476918	     -3.71312371	     -1.83125429	     -0.25618583	      1.06166858	      0.31545384	     14.86549030	     -1.52481810	     -9.42872320	    -50.42875880	     11.57818318	     15.51161454	     16.25161961	     -2.95372608	     -0.64973589	     -1.48971452	    -10.34453193	      2.11757305	      0.00000000	      0.00000000	      0.00000000	      0.00000000	      0.00000000	      0.00000000	      0.00000000	      0.00000000	      0.00000000	      0.00000000	      0.00000000	      7.14575559	    -21.90885741	     -3.58652075	     -3.44559948
